<svg width="24" height="24" fill="none" xmlns="http://www.w3.org/2000/svg"><g clip-path="url(#a)" fill="#FA5156"><path d="M12.73 2.508v-1.03a.979.979 0 1 0-1.959 0v1.03a10.752 10.752 0 0 0-7.167 17.748 2.961 2.961 0 0 0-1.646 2.765.98.98 0 1 0 1.959 0 1.175 1.175 0 0 1 1.087-1.203.913.913 0 0 0 .195-.06 10.697 10.697 0 0 0 13.112 0c.057.026.117.047.178.062a1.175 1.175 0 0 1 1.095 1.201.979.979 0 1 0 1.958 0 2.962 2.962 0 0 0-1.646-2.765A10.75 10.75 0 0 0 12.73 2.508ZM2.937 13.229a8.813 8.813 0 1 1 8.813 8.813 8.823 8.823 0 0 1-8.813-8.813ZM18.815.5a.98.98 0 0 0 0 1.958 2.536 2.536 0 0 1 2.727 2.448.98.98 0 0 0 1.959 0A4.504 4.504 0 0 0 18.815.5ZM1.958 4.906a2.536 2.536 0 0 1 2.728-2.448.98.98 0 1 0 0-1.958A4.504 4.504 0 0 0 0 4.906a.98.98 0 0 0 1.958 0Z"/><path d="M12.73 11.845V7.354a.98.98 0 0 0-1.959 0v4.896c0 .26.104.509.287.692l2.938 2.938a.979.979 0 0 0 1.385-1.385l-2.651-2.65Z"/></g><defs><clipPath id="a"><path fill="#fff" transform="translate(0 .5)" d="M0 0h23.501v23.501H0z"/></clipPath></defs></svg>