<svg width="433" height="381" fill="none" xmlns="http://www.w3.org/2000/svg"><mask id="a" style="mask-type:alpha" maskUnits="userSpaceOnUse" x="0" y="0" width="433" height="381"><path fill="#C4C4C4" d="M0 0h433v381H0z"/></mask><g mask="url(#a)"><path fill-rule="evenodd" clip-rule="evenodd" d="M351.665 265.597h25.334v-5.321h-25.334v5.321Z" fill="#fff"/><path fill-rule="evenodd" clip-rule="evenodd" d="M376.545 258.946h-26.213v1.693h26.213v4.595h-26.213v1.693h28.001v-7.981h-1.788Z" fill="url(#b)"/><path fill-rule="evenodd" clip-rule="evenodd" d="M347.665 274.909h25.334v-5.321h-25.334v5.321Z" fill="#fff"/><path fill-rule="evenodd" clip-rule="evenodd" d="M372.545 266.927h-26.213v1.693h26.213v4.595h-26.213v1.693h28v-7.981h-1.787Z" fill="#805AAF"/><path fill-rule="evenodd" clip-rule="evenodd" d="M374.333 266.927h6.666v7.933l-6.666.048v-7.981Z" fill="#69499B"/><path fill-rule="evenodd" clip-rule="evenodd" d="M163.663 54.752c0 8.45-6.866 15.298-15.334 15.298-8.469 0-15.333-6.848-15.333-15.298s6.864-15.297 15.333-15.297c8.468 0 15.334 6.847 15.334 15.297ZM166.33 80.027c0 3.306-2.687 5.986-6 5.986-3.315 0-6.001-2.68-6.001-5.986 0-3.305 2.686-5.986 6.001-5.986 3.313 0 6 2.681 6 5.986Z" fill="#4DBC98"/><ellipse cx="379.666" cy="336.1" rx="53.334" ry="7.981" fill="url(#c)" style="mix-blend-mode:multiply" opacity=".2"/><ellipse rx="118.002" ry="12.637" transform="matrix(-1 0 0 1 256.331 330.114)" fill="url(#d)" style="mix-blend-mode:multiply" opacity=".5"/><path fill-rule="evenodd" clip-rule="evenodd" d="M176.555 53.312c1.102-7.8 1.653-11.7 3.531-14.635a15.992 15.992 0 0 1 6.813-5.918c3.168-1.45 7.107-1.45 14.984-1.45h141.175c10.098 0 15.148 0 18.792 2.046a15.987 15.987 0 0 1 7.038 8.047c1.541 3.884.868 8.889-.478 18.897L333.411 320.58c-1.056 7.856-1.585 11.784-3.458 14.741a15.988 15.988 0 0 1-6.824 5.967c-3.18 1.463-7.144 1.463-15.07 1.463H165.111c-10.16 0-15.239 0-18.895-2.061a15.988 15.988 0 0 1-7.037-8.101c-1.529-3.907-.818-8.937.603-18.997l36.773-260.28Z" fill="url(#e)"/><path fill-rule="evenodd" clip-rule="evenodd" d="M126.589 340.791h5.1l-10.124-16.809s-.978 11.476 5.024 16.809Z" fill="#5D8202"/><path fill-rule="evenodd" clip-rule="evenodd" d="M130.953 341.217s-1.974-28.306-21.958-42.089c0 0 8.762 9.683 7.088 16.088 0 0-1.396 5.292 4.746 9.192 0 0 9.92 13.982 10.124 16.809Z" fill="#72940C"/><path fill-rule="evenodd" clip-rule="evenodd" d="M161.332 278.899s-8.065 13.899-9.532 14.875c0 0-18.086 24.384-10.265 47.062h4.399s-6.11-7.926 15.398-61.937Z" fill="#73950C"/><path fill-rule="evenodd" clip-rule="evenodd" d="M145.935 340.836s13.296-19.686 14.222-25.885l-.627-6.58s-15.675 17.72-13.595 32.465Z" fill="#5B8101"/><path fill-rule="evenodd" clip-rule="evenodd" d="M164.764 295.839s-9.736 8.773-4.607 19.112c0 0 1.884-15.457 4.607-19.112Z" fill="#73950C"/><path fill-rule="evenodd" clip-rule="evenodd" d="M141.147 102.163c.619-3.843.928-5.765 1.881-7.204a7.992 7.992 0 0 1 3.413-2.89c1.577-.702 3.524-.69 7.416-.664l181.44 1.163c5.175.034 7.763.05 9.6 1.117a7.992 7.992 0 0 1 3.49 4.156c.733 1.995.302 4.546-.561 9.649l-4.248 25.135c-.637 3.765-.955 5.647-1.896 7.063a7.996 7.996 0 0 1-3.358 2.857c-1.548.701-3.458.713-7.276.738l-181.609 1.164c-5.198.034-7.797.05-9.652-.998a8 8 0 0 1-3.543-4.132c-.753-1.993-.34-4.559.485-9.691l4.418-27.463Z" fill="#4DBC98"/><path d="m204.997 112.618 113.969-.665M196.997 128.581h60" stroke="#fff" stroke-width="7.461" stroke-linecap="round"/><ellipse rx="13.998" ry="18.627" transform="rotate(15.965 -341.987 643.136) skewX(-.071)" fill="#fff"/><path opacity=".1" fill-rule="evenodd" clip-rule="evenodd" d="M171.73 168.904c.536-3.919.803-5.878 1.741-7.353a8.006 8.006 0 0 1 3.41-2.975c1.588-.729 3.566-.729 7.521-.729h140.653c5.045 0 7.567 0 9.388 1.021a7.99 7.99 0 0 1 3.519 4.02c.772 1.94.438 4.44-.229 9.441l-3.333 24.969c-.525 3.932-.787 5.898-1.724 7.378a7.992 7.992 0 0 1-3.412 2.988c-1.591.732-3.575.732-7.542.732H180.988c-5.06 0-7.589 0-9.413-1.025a7.992 7.992 0 0 1-3.519-4.033c-.769-1.946-.426-4.452.259-9.465l3.415-24.969ZM165.063 227.435c.536-3.919.804-5.878 1.741-7.353a8.006 8.006 0 0 1 3.41-2.975c1.588-.729 3.566-.729 7.521-.729h141.001c4.938 0 7.406 0 9.208.993a7.996 7.996 0 0 1 3.519 3.923c.792 1.899.524 4.353-.012 9.262l-2.725 24.969c-.44 4.031-.66 6.047-1.588 7.568a7.98 7.98 0 0 1-3.431 3.077c-1.613.757-3.641.757-7.696.757h-141.69c-5.06 0-7.589 0-9.413-1.025a7.992 7.992 0 0 1-3.519-4.033c-.769-1.946-.426-4.452.26-9.465l3.414-24.969ZM157.109 285.952c.54-3.914.809-5.871 1.747-7.344a7.994 7.994 0 0 1 3.409-2.971c1.588-.728 3.563-.728 7.514-.728h139.292c5.04 0 7.559 0 9.38 1.02a7.993 7.993 0 0 1 3.519 4.015c.772 1.938.442 4.437-.22 9.433l-3.304 24.969c-.521 3.936-.782 5.905-1.718 7.387a7.995 7.995 0 0 1-3.413 2.991c-1.593.734-3.578.734-7.549.734H166.337c-5.064 0-7.597 0-9.421-1.027a7.99 7.99 0 0 1-3.519-4.036c-.768-1.948-.422-4.457.27-9.474l3.442-24.969Z" fill="#fff"/><path fill-rule="evenodd" clip-rule="evenodd" d="M177.713 45.35a15.988 15.988 0 0 1 15.848-13.877h159.613c9.75 0 17.229 8.65 15.82 18.298l-1.601 10.968h-191.73l2.05-15.39Z" fill="url(#f)"/><g opacity=".1" filter="url(#g)"><ellipse cx="195.663" cy="46.106" rx="4" ry="3.991" fill="#DD8B7F"/></g><g opacity=".4" filter="url(#h)"><ellipse cx="207.664" cy="46.106" rx="4" ry="3.991" fill="#DD8B7F"/></g><g filter="url(#i)"><ellipse cx="218.33" cy="46.106" rx="4" ry="3.991" fill="#DD8B7F"/></g><ellipse opacity=".05" rx="11.998" ry="15.965" transform="rotate(13.969 -650.896 879.26) skewX(-.063)" fill="#fff"/><g opacity=".05" stroke="#fff" stroke-width="7.461" stroke-linecap="round"><path d="m223.13 176.204 86.935-.532M215.664 192.167h46.934"/></g><ellipse opacity=".05" rx="11.998" ry="15.965" transform="rotate(13.969 -893.781 875.873) skewX(-.063)" fill="#fff"/><g opacity=".05" stroke="#fff" stroke-width="7.461" stroke-linecap="round"><path d="m215.13 234.735 86.935-.532M207.664 250.698h46.934"/></g><ellipse opacity=".05" rx="11.998" ry="15.965" transform="rotate(13.969 -1136.67 872.487) skewX(-.063)" fill="#fff"/><g opacity=".05" stroke="#fff" stroke-width="7.461" stroke-linecap="round"><path d="m207.13 293.266 86.935-.532M199.663 309.229h46.934"/></g><path fill-rule="evenodd" clip-rule="evenodd" d="m160.029 124.344-1.25 4.237h-3.116l7.647-18.623h4.916l.77 18.623h-3.116v-4.237h-5.851Zm5.022-11.065-3.974 8.047h4.916l-.942-8.047Z" fill="#4DBC98"/><path fill-rule="evenodd" clip-rule="evenodd" d="M384.883 341.311h-4.148V142.023h4.148v199.288Z" fill="#8F9EA0"/><path fill-rule="evenodd" clip-rule="evenodd" d="M396.786 225.211s4.827 25.756 2.413 35.285h-6.401s.727-18.451 3.988-35.285Z" fill="url(#j)"/><path fill-rule="evenodd" clip-rule="evenodd" d="M387.787 276.164h18.834a2.376 2.376 0 0 0 2.378-2.373v-13.08h-23.591v13.08a2.377 2.377 0 0 0 2.379 2.373Z" fill="#fff"/><path fill-rule="evenodd" clip-rule="evenodd" d="M381.581 276.188h21.915a2.24 2.24 0 0 0 2.243-2.238 2.24 2.24 0 0 0-2.243-2.237h-21.915a2.24 2.24 0 0 0-2.242 2.237 2.24 2.24 0 0 0 2.242 2.238Z" fill="#4B5579"/><path fill-rule="evenodd" clip-rule="evenodd" d="M381.581 276.188h12.975a2.241 2.241 0 0 0 2.244-2.238 2.24 2.24 0 0 0-2.244-2.237h-12.975a2.24 2.24 0 0 0-2.242 2.237 2.24 2.24 0 0 0 2.242 2.238Z" fill="#242B47"/><path fill-rule="evenodd" clip-rule="evenodd" d="M391.391 260.675s-1.73-9.342-1.73-26.683c0 0 5.897 10.3 7.472 26.683h-5.742Z" fill="#9CE08A"/><path fill-rule="evenodd" clip-rule="evenodd" d="M391.391 260.675s-1.73-9.342-1.73-26.683c0 0 5.897 10.3 7.472 26.683h-5.742Z" fill="url(#k)"/><path fill-rule="evenodd" clip-rule="evenodd" d="M402.069 260.675s1.731-9.342 1.731-26.683c0 0-5.898 10.3-7.473 26.683h5.742Z" fill="url(#l)"/><path fill-rule="evenodd" clip-rule="evenodd" d="M402.658 144.092h-39.697V92.665h39.697v51.427Z" fill="url(#m)"/><path fill-rule="evenodd" clip-rule="evenodd" d="M372.52 280.553h-6.006l1.224 60.47h3.67l1.112-60.47Z" fill="#DFA472"/><path fill-rule="evenodd" clip-rule="evenodd" d="m356.977 280.583-23.808 60.589h-3.564l21.527-60.589h5.845Z" fill="#D7714A"/><path fill-rule="evenodd" clip-rule="evenodd" d="M388.343 280.5h-5.992l23.569 60.711h3.595L388.343 280.5Z" fill="#C66642"/><path fill-rule="evenodd" clip-rule="evenodd" d="M356.828 280.694h-5.735l-18.611 60.257h.784l23.562-60.257ZM372.081 296.514l-4.397 44.311-1.026-60.398h5.423v16.087Z" fill="#9E482E"/><path fill-rule="evenodd" clip-rule="evenodd" d="m371.935 291.834-4.984 1.024V280.72h4.984v11.114Z" fill="#712111"/><path fill-rule="evenodd" clip-rule="evenodd" d="M382.48 280.586h5.81l6.133 17.873 2.582 19.966-14.525-37.839Z" fill="#6E1F0E"/><path fill-rule="evenodd" clip-rule="evenodd" d="m388.605 281.844-5.271 1.023-1.025-2.483h6.296v1.46Z" fill="#651708"/><path fill-rule="evenodd" clip-rule="evenodd" d="M323.096 280.65h92.621a2.612 2.612 0 0 0 2.616-2.609 2.613 2.613 0 0 0-2.616-2.61h-92.621a2.613 2.613 0 0 0-2.616 2.61 2.612 2.612 0 0 0 2.616 2.609Z" fill="#DDEBEE"/><path fill-rule="evenodd" clip-rule="evenodd" d="m355.525 280.666-12.247 22.12 7.602-22.12h4.645Z" fill="#712111"/><path d="M393.711 143.631v15.247" stroke="url(#n)" stroke-width=".666"/><path fill-rule="evenodd" clip-rule="evenodd" d="M393.056 165.14h1.037a2.164 2.164 0 0 0 2.166-2.16v-1.942c0-1.193-.971-2.16-2.166-2.16h-1.037a2.163 2.163 0 0 0-2.165 2.16v1.942c0 1.193.97 2.16 2.165 2.16Z" fill="url(#o)"/><path d="m142.329 53.573 3.945 4.505 8.055-6.651" stroke="#fff" stroke-width="2.665"/><ellipse rx="74.21" ry="13.078" transform="matrix(-1 0 0 1 74.21 360.149)" fill="url(#p)" style="mix-blend-mode:multiply" opacity=".1"/><path fill-rule="evenodd" clip-rule="evenodd" d="M124.547 336.45s.937 3.014 2.155 4.145l-6.698 5.034h-7.218l-3.393-4.383-1.285-4.796h16.439Z" fill="url(#q)"/><path fill-rule="evenodd" clip-rule="evenodd" d="m142.303 359.394-35.024-.161.528-19.913 18.691.34 17.307 12.686s3.262 2.026.825 6.564c0 0-.564.493-2.327.484Z" fill="#E2DFE2"/><path fill-rule="evenodd" clip-rule="evenodd" d="m131.01 343.016-23.278-.878-.301 11.374 26.257-.354 5.714-4.04-8.392-6.102Z" fill="#7E5452"/><path opacity=".39" fill-rule="evenodd" clip-rule="evenodd" d="m109.441 339.349 6.569 19.883h-8.731l.528-19.912 1.634.029Z" fill="#000"/><path fill-rule="evenodd" clip-rule="evenodd" d="m107.313 356.33-.035 2.903 35.807.376s2.434.227 2.5-3.462l-38.272.183Z" fill="#C4B8BA"/><path fill-rule="evenodd" clip-rule="evenodd" d="m54.07 336.544-1.205 8.545h-6.377l-6.424 1.068-2.855-5.162 1.606-4.985 15.255.534Z" fill="url(#r)"/><ellipse opacity=".4" rx="25.958" ry="4.421" transform="matrix(-1 0 0 1 40.403 364.823)" fill="url(#s)"/><g filter="url(#t)"><path fill-rule="evenodd" clip-rule="evenodd" d="M70.52 66.804s-24.195 6.54-24.288 52.495c0 0 .704 45.398 11.32 64.331l64.007 9.171s-5.143-100.11-24.5-116.04l-26.54-9.957Z" fill="#DAE4F1"/></g><path fill-rule="evenodd" clip-rule="evenodd" d="M97.735 77.045s14.024 14.99 11.064 38.036c0 0-3.353 42.771-58.734 41.818 0 0-8.174-26.373-1.31-60.81 0 0 3.953-21.73 20.952-28.69l28.028 9.646Z" fill="url(#u)"/><path fill-rule="evenodd" clip-rule="evenodd" d="m95.44 126.086 6.362 13.729s9.803 13.213 21.407 6.561l47.885-35.752s14.849 5.079 18.445-2.783c0 0 2.832-7.994 1.725-9.761l8.963-2.263a2.567 2.567 0 0 0-.981-5.033L187.54 92.39s-11.522.963-17.743 5.844l-50.147 25.939s-2.893 1.796-4.065-.927l-1.509-4.259-18.637 7.099Z" fill="url(#v)"/><path fill-rule="evenodd" clip-rule="evenodd" d="M118.572 124.672s-2.185.373-2.708-.795c-.524-1.168 2.708-2.162 2.708-2.162l.721-.164-.721 3.121Z" fill="#A9BFDE"/><path fill-rule="evenodd" clip-rule="evenodd" d="M78.86 16.052c-.26.149-.52.28-.78.44-7.083 4.38-10.569 12.779-9.266 20.988.522 3.304 4.055 10.635 5.093 13.365l.294.026s-2.45-14.889 2.35-12.56c0 0 3.065 3.726 3.517 7.255 0 0 2.351-.107 1.93-4.415 0 0 .34-8.961 8.78-9.81 8.443-.851 10.516-.023 14.397-3.521l.356 11.495s7.28-4.759 5.503-12.162h.032c1.752-3.481 2.27-5.257 2.27-5.257l-2.624-1.058 2.85-4.842-5.513-1.55 2.789-5.132C88.655 7.794 78.88 16.02 78.88 16.02l-.02.032Z" fill="url(#w)"/><path fill-rule="evenodd" clip-rule="evenodd" d="M88.414 31.445c-7.082 1.098-7.569 12.398-7.569 12.398l-1.047-1.8c-2.096-8.273-6.078-4.718-6.078-4.718-1.701 1.769-.312 8.182-.312 8.182l1.24 13.211c-.23 1.339-.996 5.043-2.618 6.417l2.178 2.119a12.976 12.976 0 0 0 6.221 3.363c4.096.916 9.201 2.247 10.77 2.307.299.011.817-.995 1.322-2.178.831-1.952 1.123-4.078.972-6.192a8.505 8.505 0 0 1 0-1.34c.344.036.551.049.551.049 5.777 2.366 10.225-11.706 10.225-11.706 2.722-9.846.906-23.738.906-23.738-6.009 3.705-16.76 3.627-16.76 3.627Z" fill="url(#x)"/><path fill-rule="evenodd" clip-rule="evenodd" d="M92.633 53.577s1.77.336 3.64.54c1.868.205 3.835.28 4.232-.242 0 0-.765 5.964-4.11 4.446 0 0-2.248-.834-3.762-4.744Z" fill="#590909"/><path fill-rule="evenodd" clip-rule="evenodd" d="M92.633 53.577s7.735 1.014 6.487 4.058c0 0-.885 1.503-2.726.686 0 0-2.153-.71-3.76-4.744Z" fill="#EF3A32"/><path fill-rule="evenodd" clip-rule="evenodd" d="M97.16 32.4s-2.296-.169-4.732.204c-1.531.235-3.02 1.101-4.333 1.051 0 0 4.882 1.586 9.065-1.255Z" fill="url(#y)"/><path fill-rule="evenodd" clip-rule="evenodd" d="M108.551 34.69c-1.79-.52-5.596-2.74-5.596-2.74 2.496 3.345 5.596 2.74 5.596 2.74Z" fill="url(#z)"/><path fill-rule="evenodd" clip-rule="evenodd" d="M93.496 39.27c-.96-.038-1.77.78-1.81 1.823-.04 1.045.706 1.922 1.667 1.957.959.037 1.77-.78 1.809-1.824.04-1.015-.663-1.87-1.585-1.95l-.08-.006Z" fill="url(#A)"/><path fill-rule="evenodd" clip-rule="evenodd" d="M104.51 39.342c-.524-.021-.978.768-1.017 1.758-.037.992.357 1.811.88 1.83.523.02.979-.765 1.017-1.757.038-.976-.343-1.786-.854-1.83l-.026-.001Z" fill="url(#B)"/><path d="m88.431 40.97-9.075-2.11" stroke="#fff" stroke-width="1.935"/><path clip-rule="evenodd" d="M93.256 35.307c-2.542-.097-4.702 2.438-4.825 5.663-.124 3.226 1.838 5.918 4.379 6.014 2.541.096 4.703-2.44 4.825-5.664.124-3.225-1.837-5.918-4.379-6.013ZM105.193 35.76c-1.742-.067-3.255 2.493-3.377 5.718-.124 3.225 1.19 5.893 2.932 5.959 1.741.066 3.253-2.493 3.376-5.72.123-3.225-1.189-5.891-2.931-5.958Z" stroke="#fff" stroke-width="1.935"/><path fill-rule="evenodd" clip-rule="evenodd" d="m69.706 67.398 2.389-4.858 26.195 7.248-.555 7.257-28.029-9.647Z" fill="url(#C)"/><path fill-rule="evenodd" clip-rule="evenodd" d="m105.405 97.52 13.888 24.031s.193 2.328-8.685 3.153c0 0-7.591 6.158-10.103 12.085 0 0-2.169-2.021-5.088-7.104 0 0-32.923-32.529-11.173-44.57 0 0 10.456-3.96 21.161 12.405Z" fill="url(#D)"/><path fill-rule="evenodd" clip-rule="evenodd" d="m121.866 186.923 6.767 54.247s2.34 19.463 1.301 39.706c0 0-3.78 53.838-4.821 56.952h-18.469l-16.768-78.231-30.436-70.071 62.426-2.603Z" fill="url(#E)"/><path fill-rule="evenodd" clip-rule="evenodd" d="M116.01 187.795s-22.447 65.438-29.406 79.323c0 0-27.372 58.807-29.61 70.71H34.096l19.268-75.237 5.712-78.536 56.933 3.74Z" fill="url(#F)"/><path fill-rule="evenodd" clip-rule="evenodd" d="m64.596 368.154-33.788-9.199 5.675-19.098 17.966 5.155 13.427 16.723s2.624 2.799-.907 6.553c0 0-.672.33-2.373-.134Z" fill="#E2DFE2"/><path fill-rule="evenodd" clip-rule="evenodd" d="m57.936 349.42-22.257-6.859-3.24 10.909 25.453 6.438 6.568-2.427-6.524-8.061Z" fill="#7E5452"/><path opacity=".39" fill-rule="evenodd" clip-rule="evenodd" d="m38.053 340.308 1.187 20.902-8.434-2.255 5.677-19.097 1.57.45Z" fill="#000"/><path fill-rule="evenodd" clip-rule="evenodd" d="m31.593 356.16-.787 2.795 34.49 9.61s2.291.847 3.313-2.699l-37.016-9.706Z" fill="#C4B8BA"/></g><defs><linearGradient id="p" x1="2.99" y1="28.367" x2="50.022" y2="87.299" gradientUnits="userSpaceOnUse"><stop stop-color="#1E2022"/><stop stop-color="#1E2022"/><stop offset="1" stop-color="#EDF1F4"/></linearGradient><linearGradient id="F" x1="120.03" y1="291.308" x2="50.792" y2="306.782" gradientUnits="userSpaceOnUse"><stop stop-color="#442F2F"/><stop offset="1" stop-color="#26213B"/></linearGradient><linearGradient id="E" x1="117.364" y1="292.175" x2="62.453" y2="287.249" gradientUnits="userSpaceOnUse"><stop stop-color="#442F2F"/><stop offset="1" stop-color="#1C1637"/></linearGradient><linearGradient id="D" x1="81.793" y1="106.024" x2="100.333" y2="93.426" gradientUnits="userSpaceOnUse"><stop stop-color="#C3D4EA"/><stop offset="1" stop-color="#DAE4F1"/></linearGradient><linearGradient id="b" x1="350.333" y1="266.927" x2="378.333" y2="266.927" gradientUnits="userSpaceOnUse"><stop stop-color="#FF7054"/><stop offset="1" stop-color="#FFAF50"/></linearGradient><linearGradient id="c" x1="420.106" y1="331.11" x2="328.776" y2="331.11" gradientUnits="userSpaceOnUse"><stop stop-color="#EDF1F4"/><stop offset="1" stop-color="#1E2022"/><stop offset="1" stop-color="#1E2022"/></linearGradient><linearGradient id="d" x1="-210.053" y1="21.58" x2="-207.875" y2="76.114" gradientUnits="userSpaceOnUse"><stop stop-color="#EDF1F4"/><stop offset="1" stop-color="#1E2022"/><stop offset="1" stop-color="#1E2022"/></linearGradient><linearGradient id="e" x1="313.645" y1="4.59" x2="74.154" y2="100.932" gradientUnits="userSpaceOnUse"><stop stop-color="#442F2F"/><stop offset="1" stop-color="#26213B"/></linearGradient><linearGradient id="f" x1="238.372" y1="70.069" x2="255.352" y2="9.862" gradientUnits="userSpaceOnUse"><stop stop-color="#442F2F"/><stop offset="1" stop-color="#26213B"/></linearGradient><linearGradient id="j" x1="393.716" y1="258.969" x2="399.841" y2="234.293" gradientUnits="userSpaceOnUse"><stop stop-color="#299887"/><stop offset=".577" stop-color="#3EC8B3"/><stop offset="1" stop-color="#3EC8B3"/></linearGradient><linearGradient id="k" x1="392.887" y1="259.171" x2="387.432" y2="256.269" gradientUnits="userSpaceOnUse"><stop stop-color="#8ACA79"/><stop offset=".69" stop-color="#9CE08A"/><stop offset="1" stop-color="#9CE08A"/></linearGradient><linearGradient id="l" x1="400.574" y1="259.171" x2="406.028" y2="256.269" gradientUnits="userSpaceOnUse"><stop stop-color="#8ACA79"/><stop offset=".69" stop-color="#9CE08A"/><stop offset="1" stop-color="#9CE08A"/></linearGradient><linearGradient id="m" x1="362.961" y1="144.092" x2="362.961" y2="92.665" gradientUnits="userSpaceOnUse"><stop stop-color="#F3D191"/><stop offset="1" stop-color="#E4A458"/></linearGradient><linearGradient id="n" x1="393.951" y1="143.631" x2="393.951" y2="158.878" gradientUnits="userSpaceOnUse"><stop stop-color="#E7AF66"/><stop offset="1" stop-color="#E6AB61"/></linearGradient><linearGradient id="o" x1="390.891" y1="165.14" x2="390.891" y2="158.878" gradientUnits="userSpaceOnUse"><stop stop-color="#F3D191"/><stop offset="1" stop-color="#E4A458"/></linearGradient><linearGradient id="C" x1="72.516" y1="66.089" x2="82.299" y2="57.549" gradientUnits="userSpaceOnUse"><stop stop-color="#C3D4EA"/><stop offset="1" stop-color="#DAE4F1"/></linearGradient><linearGradient id="q" x1="126.113" y1="345.869" x2="107.631" y2="344.559" gradientUnits="userSpaceOnUse"><stop stop-color="#FF7054"/><stop offset="1" stop-color="#FFAF50"/></linearGradient><linearGradient id="r" x1="53.537" y1="346.423" x2="36.749" y2="345.447" gradientUnits="userSpaceOnUse"><stop stop-color="#FF7054"/><stop offset="1" stop-color="#FFAF50"/></linearGradient><linearGradient id="s" x1="14.528" y1="12.032" x2="20.307" y2="-6.958" gradientUnits="userSpaceOnUse"><stop stop-color="#1E2022"/><stop offset=".999" stop-color="#EDF1F4"/><stop offset="1" stop-color="#EDF1F4"/></linearGradient><linearGradient id="u" x1="47.042" y1="156.367" x2="58.421" y2="91.683" gradientUnits="userSpaceOnUse"><stop stop-color="#DAE4F1"/><stop offset="1" stop-color="#C3D4EA"/></linearGradient><linearGradient id="v" x1="95.016" y1="146.561" x2="193.457" y2="159.043" gradientUnits="userSpaceOnUse"><stop stop-color="#FF7054"/><stop offset="1" stop-color="#FFAF50"/></linearGradient><linearGradient id="w" x1="66.088" y1="36.623" x2="97.91" y2="53.071" gradientUnits="userSpaceOnUse"><stop stop-color="#442F2F"/><stop offset="1" stop-color="#26213B"/></linearGradient><linearGradient id="x" x1="71.094" y1="72.386" x2="103.856" y2="74.438" gradientUnits="userSpaceOnUse"><stop stop-color="#FF7054"/><stop offset="1" stop-color="#FFAF50"/></linearGradient><linearGradient id="y" x1="88.897" y1="34.223" x2="95.091" y2="30.218" gradientUnits="userSpaceOnUse"><stop stop-color="#442F2F"/><stop offset="1" stop-color="#26213B"/></linearGradient><linearGradient id="z" x1="103.149" y1="34.424" x2="108.566" y2="33.306" gradientUnits="userSpaceOnUse"><stop stop-color="#442F2F"/><stop offset="1" stop-color="#26213B"/></linearGradient><linearGradient id="A" x1="91.599" y1="42.982" x2="95.075" y2="43.141" gradientUnits="userSpaceOnUse"><stop stop-color="#442F2F"/><stop offset="1" stop-color="#26213B"/></linearGradient><linearGradient id="B" x1="103.363" y1="42.881" x2="105.254" y2="43.021" gradientUnits="userSpaceOnUse"><stop stop-color="#442F2F"/><stop offset="1" stop-color="#26213B"/></linearGradient><filter id="h" x="-112.093" y="-245.663" width="639.514" height="639.495" filterUnits="userSpaceOnUse" color-interpolation-filters="sRGB"><feFlood flood-opacity="0" result="BackgroundImageFix"/><feColorMatrix in="SourceAlpha" values="0 0 0 0 0 0 0 0 0 0 0 0 0 0 0 0 0 0 127 0" result="hardAlpha"/><feOffset dy="27.979"/><feGaussianBlur stdDeviation="157.878"/><feColorMatrix values="0 0 0 0 0 0 0 0 0 0 0 0 0 0 0 0 0 0 0.04 0"/><feBlend in2="BackgroundImageFix" result="effect1_dropShadow_1312_31019"/><feBlend in="SourceGraphic" in2="effect1_dropShadow_1312_31019" result="shape"/></filter><filter id="t" x="-51.026" y="-21.129" width="269.844" height="320.514" filterUnits="userSpaceOnUse" color-interpolation-filters="sRGB"><feFlood flood-opacity="0" result="BackgroundImageFix"/><feColorMatrix in="SourceAlpha" values="0 0 0 0 0 0 0 0 0 0 0 0 0 0 0 0 0 0 127 0" result="hardAlpha"/><feOffset dy="9.326"/><feGaussianBlur stdDeviation="48.629"/><feColorMatrix values="0 0 0 0 0 0 0 0 0 0 0 0 0 0 0 0 0 0 0.04 0"/><feBlend in2="BackgroundImageFix" result="effect1_dropShadow_1312_31019"/><feBlend in="SourceGraphic" in2="effect1_dropShadow_1312_31019" result="shape"/></filter><filter id="i" x="-101.427" y="-245.663" width="639.514" height="639.495" filterUnits="userSpaceOnUse" color-interpolation-filters="sRGB"><feFlood flood-opacity="0" result="BackgroundImageFix"/><feColorMatrix in="SourceAlpha" values="0 0 0 0 0 0 0 0 0 0 0 0 0 0 0 0 0 0 127 0" result="hardAlpha"/><feOffset dy="27.979"/><feGaussianBlur stdDeviation="157.878"/><feColorMatrix values="0 0 0 0 0 0 0 0 0 0 0 0 0 0 0 0 0 0 0.04 0"/><feBlend in2="BackgroundImageFix" result="effect1_dropShadow_1312_31019"/><feBlend in="SourceGraphic" in2="effect1_dropShadow_1312_31019" result="shape"/></filter><filter id="g" x="-124.094" y="-245.663" width="639.514" height="639.495" filterUnits="userSpaceOnUse" color-interpolation-filters="sRGB"><feFlood flood-opacity="0" result="BackgroundImageFix"/><feColorMatrix in="SourceAlpha" values="0 0 0 0 0 0 0 0 0 0 0 0 0 0 0 0 0 0 127 0" result="hardAlpha"/><feOffset dy="27.979"/><feGaussianBlur stdDeviation="157.878"/><feColorMatrix values="0 0 0 0 0 0 0 0 0 0 0 0 0 0 0 0 0 0 0.04 0"/><feBlend in2="BackgroundImageFix" result="effect1_dropShadow_1312_31019"/><feBlend in="SourceGraphic" in2="effect1_dropShadow_1312_31019" result="shape"/></filter></defs></svg>