<svg width="25" height="25" fill="none" xmlns="http://www.w3.org/2000/svg"><g clip-path="url(#a)"><path d="M12.5.448c-6.627 0-12 5.372-12 12 0 6.627 5.373 12 12 12s12-5.373 12-12c-.007-6.625-5.375-11.993-12-12Zm4 14.587a1 1 0 1 1-1.413 1.413L12.5 13.862l-2.586 2.586A1 1 0 0 1 8.5 15.034l2.586-2.586L8.5 9.862a1 1 0 0 1 1.414-1.414l2.586 2.586 2.587-2.586A1 1 0 1 1 16.5 9.86l-2.586 2.587 2.586 2.587Z" fill="#FFC239"/></g><defs><clipPath id="a"><path fill="#fff" transform="translate(.5 .448)" d="M0 0h24v24H0z"/></clipPath></defs></svg>